# AST/ASF file generated using VICON BodyLanguage
# -----------------------------------------------
:version 1.10
:name VICON
:units
  mass 1.0
  length 0.45
  angle deg
:documentation
   .ast/.asf automatically generated from VICON data using
   VICON BodyBuilder and BodyLanguage model FoxedUp or BRILLIANT.MOD
:root
   order TX TY TZ RX RY RZ
   axis XYZ
   position 0 0 0  
   orientation 0 0 0 
:bonedata
  begin
     id 1 
     name lhipjoint
     direction 0.635376 -0.686425 0.353719 
     length 2.47244 
     axis 0 0 0  XYZ
  end
  begin
     id 2 
     name lfemur
     direction 0.34202 -0.939693 0  
     length 7.25268  
     axis 0 0 20  XYZ
    dof rx ry rz
    limits (-160.0 20.0)
           (-70.0 70.0)
           (-60.0 70.0)
  end
  begin
     id 3 
     name ltibia
     direction 0.34202 -0.939693 0   
     length 7.6767   
     axis 0 0 20   XYZ
    dof rx
    limits (-10.0 170.0)
  end
  begin
     id 4 
     name lfoot
     direction 0.0803374 -0.220725 0.972022   
     length 2.22945   
     axis -90 7.62852e-016 20   XYZ
    dof rx rz
    limits (-45.0 90.0)
           (-70.0 20.0)
  end
  begin
     id 5 
     name ltoes
     direction 1.53579e-011 -4.21994e-011 1   
     length 1.11848   
     axis -90 7.62852e-016 20   XYZ
    dof rx
    limits (-90.0 20.0)
  end
  begin
     id 6 
     name rhipjoint
     direction -0.664428 -0.664335 0.342336   
     length 2.55466  
     axis 0 0 0  XYZ 
  end
  begin
     id 7 
     name rfemur
     direction -0.34202 -0.939693 0   
     length 6.83172   
     axis 0 0 -20   XYZ
    dof rx ry rz
    limits (-160.0 20.0)
           (-70.0 70.0)
           (-70.0 60.0)
  end
  begin
     id 8 
     name rtibia
     direction -0.34202 -0.939693 0   
     length 7.62692   
     axis 0 0 -20   XYZ
    dof rx
    limits (-10.0 170.0)
 end
 begin
     id 9 
     name rfoot
     direction -0.0949276 -0.260811 0.960711   
     length 2.19684  
     axis -90 -7.62852e-016 -20   XYZ
    dof rx rz
    limits (-45.0 90.0)
           (-20.0 70.0)
  end
  begin
     id 10 
     name rtoes
     direction -1.53543e-011 -4.2183e-011 1   
     length 1.09848   
     axis -90 -7.62852e-016 -20   XYZ
    dof rx
    limits (-90.0 20.0)
  end
  begin
     id 11 
     name lowerback
     direction 0.0118782 0.999815 -0.0151555   
     length 2.15772   
     axis 0 0 0   XYZ
    dof rx ry rz
    limits (-20.0 45.0)
           (-30.0 30.0)
           (-30.0 30.0)
  end
  begin
     id 12 
     name upperback
     direction 0.00130825 0.999065 0.0432113   
     length 2.14863   
     axis 0 0 0   XYZ
    dof rx ry rz
    limits (-20.0 45.0)
           (-30.0 30.0)
           (-30.0 30.0)
  end
  begin
     id 13 
     name thorax
     direction -0.00347005 0.998773 0.0494011   
     length 2.14936   
     axis 0 0 0   XYZ
    dof rx ry rz
    limits (-20.0 45.0)
           (-30.0 30.0)
           (-30.0 30.0)
  end
  begin
     id 14 
     name lowerneck
     direction -0.0262159 0.99424 0.103921   
     length 1.69373   
     axis 0 0 0   XYZ
    dof rx ry rz
    limits (-20.0 45.0)
           (-30.0 30.0)
           (-30.0 30.0)
  end
  begin
     id 15 
     name upperneck
     direction 0.0353511 0.977394 -0.20845   
     length 1.70857   
     axis 0 0 0   XYZ
    dof rx ry rz
    limits (-20.0 45.0)
           (-30.0 30.0)
           (-30.0 30.0)
  end
  begin
     id 16
     name head
     direction 0.0139214 0.996594 -0.0812836  
     length 1.72777  
     axis 0 0 0   XYZ
    dof rx ry rz
    limits (-20.0 45.0)
           (-30.0 30.0)
           (-30.0 30.0)
  end
  begin
     id 17 
     name lclavicle
     direction 0.841247 0.537205 -0.0609508  
     length 3.55371  
     axis 0 0 0   XYZ
    dof ry rz
    limits (-20.0 10.0)
           (0.0 20.0)
  end
  begin
     id 18 
     name lhumerus
     direction 1 -4.48964e-011 1.60116e-018   
     length 4.91377   
     axis -180 -30 -90   XYZ
    dof rx ry rz
    limits (-60.0 90.0)
           (-90.0 90.0)
           (-90.0 90.0)
  end
  begin
     id 19
     name lradius
     direction 1 -4.48989e-011 -8.93847e-027   
     length 3.00291   
     axis -180 -30 -90   XYZ
    dof rx
    limits (-10.0 170.0)
  end
  begin
     id 20
     name lwrist
     direction 1 -4.48932e-011 -7.31504e-027   
     length 1.50145   
     axis 5.74121e-015 90 90   XYZ
    dof ry
    limits (-180.0 0.0)
 end
  begin
     id 21 
     name lhand
     direction 1 -4.48971e-011 -1.46301e-026   
     length 0.450922   
     axis 9.33524e-015 90 90   XYZ
    dof rx rz
    limits (-90.0 90.0)
           (-45.0 45.0)
  end
  begin
     id 22 
     name lfingers
     direction 1 -4.49039e-011 -2.92602e-026   
     length 0.363545   
     axis 1.86705e-014 90 90   XYZ
    dof rx
    limits (0.0 90.0)
  end
  begin
     id 23
     name lthumb
     direction 0.707107 -6.34941e-011 0.707107   
     length 0.52198   
     axis -90 45 2.85299e-015   XYZ
    dof rx rz
    limits (-45.0 45.0)
           (-45.0 45.0)
  end
  begin
     id 24 
     name rclavicle
     direction -0.825079 0.56158 -0.0622297   
     length 3.39909  
     axis 0 0 0   XYZ 
    dof ry rz
    limits (-10.0 20.0)
           (-20.0 0.0)
  end
  begin
     id 25 
     name rhumerus
     direction -1 -4.48965e-011 1.61691e-027  
     length 4.86725   
     axis -180 30 90   XYZ
    dof rx ry rz
    limits (-90.0 60.0)
           (-90.0 90.0)
           (-90.0 90.0)
  end
  begin
     id 26 
     name rradius
     direction -1 -4.48964e-011 -2.25776e-027   
     length 3.17144   
     axis -180 30 90   XYZ
    dof rx
    limits (-10.0 170.0)
  end
  begin
     id 27 
     name rwrist
     direction -1 -4.48961e-011 -7.31504e-027   
     length 1.58572   
     axis 5.74121e-015 -90 -90   XYZ
    dof ry
    limits (-180.0 0.0)
  end
  begin
     id 28
     name rhand
     direction -1 -4.49013e-011 -1.46301e-026   
     length 0.419368   
     axis 9.33524e-015 -90 -90   XYZ
    dof rx rz
    limits (-90.0 90.0)
           (-45.0 45.0)
  end
  begin
     id 29
     name rfingers
     direction -1 -4.489e-011 -2.92602e-026   
     length 0.338105   
     axis 1.86705e-014 -90 -90   XYZ
    dof rx
    limits (0.0 90.0)
  end
  begin
     id 30
     name rthumb
     direction -0.707107 -6.35022e-011 0.707107   
     length 0.485453   
     axis -90 -45 -2.85299e-015   XYZ
    dof rx rz
    limits (-45.0 45.0)
           (-45.0 45.0)
  end
:hierarchy
  begin
    root lhipjoint rhipjoint lowerback
    lhipjoint lfemur
    lfemur ltibia
    ltibia lfoot
    lfoot ltoes
    rhipjoint rfemur
    rfemur rtibia
    rtibia rfoot
    rfoot rtoes
    lowerback upperback
    upperback thorax
    thorax lowerneck lclavicle rclavicle
    lowerneck upperneck
    upperneck head
    lclavicle lhumerus
    lhumerus lradius
    lradius lwrist
    lwrist lhand lthumb
    lhand lfingers
    rclavicle rhumerus
    rhumerus rradius
    rradius rwrist
    rwrist rhand rthumb
    rhand rfingers
  end

#!OML:ASF H:\Swim 2\Project 1\Capture day 1\Session 1\male.ASF
:FULLY-SPECIFIED
:DEGREES
1209
root 3.77225 13.7916 9.89775 63.0602 -18.3598 171.275
lowerback 39.2706 -1.90795 3.81963
upperback 8.27529 -4.71105 -9.41735
thorax -11.1949 -3.53113 -10.0529
lowerneck -9.23862 2.11409 -3.84294
upperneck 33.7306 8.09192 -4.05009
head 12.8849 4.12167 0.542313
rclavicle 2.22639e-014 3.79679e-014
rhumerus -1135.04 3.36549 657.812
rradius 33.1408
rwrist 332.386
rhand -26.891 -10.2428
rfingers 7.12502
rthumb -0.314799 -40.2223
lclavicle 2.22639e-014 3.79679e-014
lhumerus -1386.32 5.45675 -51.2726
lradius 30.0576
lwrist -1406.67
lhand -13.2846 7.09221
lfingers 7.12502
lthumb 12.8188 36.6786
rfemur 42.891 9.52142 27.4375
rtibia 22.8803
rfoot 39.5037 4.02347
rtoes 17.1286
lfemur 26.7242 -3.89969 -31.792
ltibia 25.2688
lfoot 9.19171 22.6916
ltoes 40.1085
1210
root 3.74267 13.786 9.86606 62.8071 -18.5967 171.275
lowerback 39.6376 -1.87342 3.74338
upperback 8.22286 -4.66252 -9.17451
thorax -11.3272 -3.50036 -9.74738
lowerneck -9.32632 2.15712 -4.05469
upperneck 33.8184 8.32916 -4.22512
head 12.9515 4.19993 0.55468
rclavicle -4.13472e-014 1.19271e-014
rhumerus -1134.27 2.51325 658.506
rradius 31.1792
rwrist 332.638
rhand -25.177 -11.0361
rfingers 7.12502
rthumb 1.34059 -41.0116
lclavicle -4.13472e-014 1.19271e-014
lhumerus -1387.29 6.34986 -51.0347
lradius 30.0167
lwrist -1407.65
lhand -13.5862 6.76416
lfingers 7.12502
lthumb 12.5281 36.3686
rfemur 42.5532 9.42305 27.6949
rtibia 22.7624
rfoot 38.5152 3.64856
rtoes 17.2283
lfemur 27.501 -3.47717 -31.4544
ltibia 25.8432
lfoot 9.66381 21.696
ltoes 39.75
1211
root 3.71012 13.7789 9.82902 62.4441 -18.8158 171.322
lowerback 40.0918 -1.85064 3.67382
upperback 8.19924 -4.63283 -8.91538
thorax -11.4563 -3.48227 -9.41608
lowerneck -9.52353 2.19401 -4.16109
upperneck 34.0624 8.61847 -4.50524
head 13.1224 4.30452 0.526025
rclavicle -4.13472e-014 1.03368e-014
rhumerus -1133.52 1.70739 659.171
rradius 29.2682
rwrist 332.796
rhand -23.6323 -11.787
rfingers 7.12502
rthumb 2.83244 -41.748
lclavicle -4.13472e-014 1.03368e-014
lhumerus -1388.25 7.22383 -50.7808
lradius 29.9072
lwrist -1408.49
lhand -13.9101 6.64929
lfingers 7.12502
lthumb 12.2158 36.2726
rfemur 42.2225 9.38219 28.0455
rtibia 22.6733
rfoot 37.4874 3.2429
rtoes 17.51
lfemur 28.4369 -2.99912 -31.0854
ltibia 26.4764
lfoot 10.4256 20.5516
ltoes 39.0465
1212
root 3.67494 13.7701 9.78747 62.0207 -19.0253 171.406
lowerback 40.5891 -1.83097 3.60099
upperback 8.19298 -4.60968 -8.6326
thorax -11.5755 -3.4689 -9.05278
lowerneck -9.79012 2.22257 -4.22481
upperneck 34.3832 8.94922 -4.87113
head 13.3541 4.42396 0.469016
rclavicle 1.11319e-014 -3.39922e-014
rhumerus -1132.8 0.917106 659.861
rradius 27.4583
rwrist 332.889
rhand -22.1707 -12.4987
rfingers 7.12502
rthumb 4.24394 -42.4362
lclavicle 1.11319e-014 -3.39922e-014
lhumerus -1389.19 8.09582 -50.4508
lradius 29.7366
lwrist -1409.29
lhand -14.2657 6.66892
lfingers 7.12502
lthumb 11.8729 36.3123
rfemur 41.844 9.39834 28.4613
rtibia 22.6489
rfoot 36.4179 2.84858
rtoes 17.782
lfemur 29.4885 -2.47444 -30.6841
ltibia 27.1303
lfoot 11.593 19.1491
ltoes 37.6378
1213
root 3.63861 13.761 9.74657 61.594 -19.2279 171.513
lowerback 41.071 -1.80695 3.52582
upperback 8.19729 -4.57781 -8.32096
thorax -11.6697 -3.45119 -8.66166
lowerneck -10.1623 2.24856 -4.25251
upperneck 34.8143 9.33429 -5.2942
head 13.6711 4.5652 0.399887
rclavicle 2.8625e-014 -6.36111e-015
rhumerus -1132.14 0.142882 660.584
rradius 25.7814
rwrist 332.981
rhand -20.7331 -13.2072
rfingers 7.12502
rthumb 5.63205 -43.1123
lclavicle 2.8625e-014 -6.36111e-015
lhumerus -1390.1 8.98643 -50.0035
lradius 29.5007
lwrist -1410.15
lhand -14.6592 6.70853
lfingers 7.12502
lthumb 11.4934 36.3734
rfemur 41.3838 9.46889 28.9136
rtibia 22.682
rfoot 35.3373 2.383
rtoes 18.0907
lfemur 30.6066 -1.95816 -30.2731
ltibia 27.7799
lfoot 12.9233 17.5959
ltoes 35.8225
1214
root 3.6021 13.7521 9.70911 61.213 -19.4314 171.637
lowerback 41.4857 -1.77284 3.44645
upperback 8.20816 -4.52699 -7.98136
thorax -11.7263 -3.42291 -8.24965
lowerneck -10.5278 2.27791 -4.35903
upperneck 35.1798 9.73283 -5.69185
head 13.9603 4.70387 0.354539
rclavicle 1.27222e-014 6.34123e-014
rhumerus -1131.53 -0.723536 661.428
rradius 24.2347
rwrist 333.345
rhand -19.3239 -13.8601
rfingers 7.12502
rthumb 6.9925 -43.7246
lclavicle 1.27222e-014 6.34123e-014
lhumerus -1390.98 9.9013 -49.4395
lradius 29.1924
lwrist -1411.2
lhand -15.1127 6.63989
lfingers 7.12502
lthumb 11.056 36.3287
rfemur 40.824 9.59476 29.3704
rtibia 22.7345
rfoot 34.2696 1.82933
rtoes 18.5119
lfemur 31.7407 -1.47453 -29.8662
ltibia 28.4053
lfoot 14.3156 15.9337
ltoes 33.7038
